<?xml version="1.0" standalone="no"?>
<!DOCTYPE svg PUBLIC "-//W3C//DTD SVG 20010904//EN"
 "http://www.w3.org/TR/2001/REC-SVG-20010904/DTD/svg10.dtd">
<svg version="1.0" xmlns="http://www.w3.org/2000/svg"
 width="544.000000pt" height="544.000000pt" viewBox="0 0 544.000000 544.000000"
 preserveAspectRatio="xMidYMid meet">
<metadata>
Created by potrace 1.11, written by Peter Selinger 2001-2013
</metadata>
<g transform="translate(0.000000,544.000000) scale(0.100000,-0.100000)"
fill="#000000" stroke="none">
<path d="M2589 5047 c-2 -3 -46 -7 -98 -11 -52 -4 -97 -9 -101 -11 -3 -2 -28
-6 -54 -10 -245 -29 -619 -171 -870 -329 -270 -171 -529 -427 -711 -701 -83
-125 -193 -347 -244 -490 -40 -113 -92 -311 -105 -400 -4 -22 -8 -53 -11 -70
-15 -99 -17 -137 -20 -300 -1 -99 1 -207 5 -240 5 -33 11 -82 15 -110 61 -486
302 -972 660 -1330 386 -387 863 -618 1405 -682 85 -10 446 -10 534 0 143 16
392 73 499 113 416 157 713 356 987 663 77 87 188 233 233 309 17 30 40 68 51
86 69 116 159 320 200 456 33 110 73 280 81 349 4 30 8 62 10 72 16 80 22 356
11 469 -12 122 -18 166 -31 230 -2 14 -7 41 -10 60 -36 221 -166 547 -308 772
-388 614 -1000 1001 -1732 1093 -60 7 -389 17 -396 12z m347 -72 c86 -8 91 -8
237 -36 327 -61 698 -234 982 -459 259 -205 519 -540 651 -839 75 -170 149
-412 168 -546 4 -22 9 -53 12 -70 21 -99 26 -442 9 -575 -24 -179 -26 -191
-60 -326 -163 -638 -614 -1190 -1210 -1479 -166 -80 -381 -157 -500 -178 -17
-3 -67 -13 -113 -21 -129 -24 -215 -31 -387 -31 -229 0 -356 16 -575 70 -726
182 -1332 739 -1585 1455 -37 107 -88 305 -101 395 -3 28 -8 59 -11 70 -6 32
-17 213 -17 290 -1 722 337 1397 919 1834 233 175 506 307 787 381 59 16 108
27 108 24 0 -2 11 1 24 6 13 5 50 12 83 16 32 3 60 8 63 9 4 2 51 7 105 11 55
3 101 7 102 8 5 5 238 -2 309 -9z"/>
<path d="M1343 3108 l2 -1063 33 -3 32 -3 0 530 0 531 690 0 691 0 -3 -797 -3
-798 -28 -79 c-86 -244 -276 -397 -558 -451 -249 -47 -497 9 -695 156 -52 38
-52 38 -70 18 -25 -28 -13 -44 81 -107 159 -105 333 -153 540 -147 419 11 721
243 789 605 7 36 13 164 15 285 1 120 3 220 5 222 1 1 247 3 547 4 601 1 594
0 729 66 55 26 94 55 145 107 302 306 180 814 -228 951 -42 14 -90 25 -109 25
l-33 1 35 27 c145 110 223 263 221 437 -2 228 -169 439 -391 493 -35 8 -888
20 -977 13 -10 -1 -13 -105 -13 -484 l0 -482 -690 0 -690 0 0 502 0 503 -34 0
-35 0 2 -1062z m2460 933 c175 -68 289 -218 301 -395 5 -87 -7 -148 -49 -233
-55 -111 -162 -199 -285 -234 -50 -13 -898 -21 -906 -7 -3 5 -6 620 -4 864 l0
31 443 -2 c429 -2 444 -3 500 -24z m185 -956 c239 -56 409 -278 397 -518 -11
-227 -164 -415 -384 -472 -56 -14 -135 -17 -598 -17 -294 0 -536 2 -539 4 -3
4 -7 820 -4 991 l0 27 533 0 c430 -1 544 -3 595 -15z"/>
</g>
</svg>
